<svg width="185" height="135" viewBox="0 0 185 135" fill="none" xmlns="http://www.w3.org/2000/svg">
<g clip-path="url(#clip0_214_32)">
<path d="M43.524 84.5252L32.1963 81.1562L86.1329 0.25L97.2869 3.5675L108.876 103.963L97.5489 100.594L88.7089 16.3537L88.0119 16.1464L43.524 84.5252ZM55.9774 50.3587L101.637 63.9402L99.3619 73.6772L53.7029 60.0962L55.9774 50.3587Z" fill="#6CF9D8"/>
<path d="M140.953 85.0521L152.28 81.6831L98.3441 0.777344L87.1901 4.09484L75.6006 104.491L86.9281 101.121L95.7681 16.8809L96.4651 16.6736L140.953 85.0521ZM128.499 50.886L82.8401 64.4671L85.1141 74.2051L130.774 60.6241L128.499 50.886Z" fill="#6CF9D8"/>
<path d="M50.0563 48.7461L0.458008 127.524L9.25301 134.575L58.8512 55.7976L50.0563 48.7461Z" fill="#6CF9D8"/>
<path d="M134.575 48.7461L184.173 127.524L175.378 134.575L125.78 55.7976L134.575 48.7461Z" fill="#6CF9D8"/>
</g>
<defs>
<clipPath id="clip0_214_32">
<rect width="185" height="135" fill="white"/>
</clipPath>
</defs>
</svg>
